<svg xmlns="http://www.w3.org/2000/svg" enable-background="new 0 0 64 64" viewBox="0 0 64 64" id="CeramicCrown">
  <path d="M16.8,48.1l-0.7-1.8c-0.2-0.5-0.8-0.8-1.3-0.6c-0.5,0.2-0.8,0.8-0.6,1.3l0.7,1.8c0.1,0.4,0.6,0.9,1.3,0.6
	C16.7,49.2,17,48.6,16.8,48.1z" fill="#498cb5" class="color000000 svgShape"></path>
  <path d="M52 33l-7.4 0c-1.5-2.5-4.1-4-7-4H26.5c-2.9 0-5.5 1.5-7 4H12c-.6 0-1.1.5-1 1 .1 3.1.6 6.1 1.7 9 .2.5.8.8 1.3.6.5-.2.8-.8.6-1.3-.9-2.4-1.4-4.8-1.6-7.3H51c-.1 2.3-.5 4.6-1.1 6.7l-5.5 17.5C43.8 61.1 42.1 61 42 61c0 0-2.2.3-2.5-1.9l-2.3-9.3c-.5-2-2.3-3.4-4.4-3.4-2.1 0-3.9 1.4-4.4 3.4l-2.3 9.3c-.3 1.1-1.3 1.9-2.5 1.9 0 0-2 .1-2.6-1.6l-2.7-7.2c-.2-.5-.8-.8-1.3-.6s-.8.8-.6 1.3l2.7 7.2c.8 2.4 3.1 3 4.3 3 .1 0 3.6.3 4.6-3.4l2.3-9.3c.3-1.1 1.3-1.9 2.4-1.9 1.2 0 2.1.8 2.4 1.9l2.3 9.3c.5 2 2.3 3.4 4.3 3.4 1.2.1 3.7-.4 4.5-3.2l5.4-17.5c.8-2.7 1.3-5.5 1.2-8.4C53 33.4 52.5 33 52 33zM21.9 33c1.2-1.3 2.8-2 4.6-2h11.1c1.7 0 3.4.8 4.6 2H21.9zM12 17h32c.6 0 1-.4 1-1s-.4-1-1-1H13c.1-3.3.9-9.2 3.5-11.3 1.9-1.5 3.9-.4 4.5 0-1 .5-1.8 1.1-2.4 1.6-.4.4-.4 1 0 1.4.4.4 1 .4 1.4 0 .1-.1 1.4-1.2 3.2-1.8 0 0 0 0 0 0 1.8-.5 4.1-.5 6.5 1.6 3.8 3.5 7.5 2.3 9.8 0 0 0 2.4-2.9 4.2-3.5 3.6-1.2 5.3 3 5.3 3.1C50.2 9 50.8 12 51 15h-3.3c-.6 0-1 .4-1 1s.4 1 1 1l4.4 0c.5 0 1-.4 1-1 0-3.6-.8-7.2-2.2-10.5C50.7 5.3 49 1 44.9 1c-1.5 0-3 .6-4.1 1.6C38.3 1 34.5 1 34.5 1c-3.6 0-6.2 1.5-7.1 2.2-1.5-.4-2.9-.4-4.2-.1-1.2-1.1-4.4-3.7-8.1-.5C11.7 5.4 10.9 12.7 11 16 11 16.6 11.5 17 12 17zM34.6 3c2.1 0 3.7.6 4.7 1 0 0-2.3 2.8-4.9 2.8-2.2 0-4.4-2.4-4.9-2.7C30.7 3.6 32.4 3 34.6 3z" fill="#498cb5" class="color000000 svgShape"></path>
  <path d="M47.8 13c.5-.1.9-.6.8-1.1-.4-2.2-1-4.3-1.8-6.4C46.6 5 46 4.7 45.5 5 45 5.2 44.7 5.8 45 6.3c.8 1.9 1.4 3.9 1.7 5.9C46.8 12.7 47.3 13.1 47.8 13zM32 19c-.6 0-1 .4-1 1v3.6c0 0-.9-1-1.7-.3-.4.4-.4 1 0 1.4l2 2c.7.6 1.4 0 1.4 0l2-2c.4-.4.4-1 0-1.4-.8-.8-1.7.3-1.7.3V20C33 19.4 32.6 19 32 19z" fill="#498cb5" class="color000000 svgShape"></path>
</svg>
