<svg xmlns="http://www.w3.org/2000/svg" viewBox="0 0 48 48" id="DentalProbe">
  <path d="M46.64,3.25l-3-3a1,1,0,0,0-1.41,1.42l3,3a1.84,1.84,0,0,1-1.3,3.14c-5.8,0-4.29-.63-10.21,5.29a2,2,0,0,0-1.09-.33c-1.64,0-2.39,1-3.34,1.92a2.05,2.05,0,0,0-1.92.5L1.11,41.45a3,3,0,0,0,0,4.25c1.37,1.36,2,2.3,3.55,2.3C6.4,48,4.27,49.63,33,20.87a2,2,0,0,0,.51-1.93l.91-.91a3,3,0,0,0,.67-3.52c4.17-4.16,4.4-4.7,5.54-4.7,3.09,0,4.56.28,6-1.13A3.84,3.84,0,0,0,46.64,3.25Zm-14,11.52.83.84c0,.7-.36.95-1.13,1.72L30.91,15.9C31.68,15.13,31.92,14.77,32.63,14.77Zm-18,21.71-2.84-2.84,7.1-7.1,2.84,2.84ZM5.37,45.71a1,1,0,0,1-1.42,0L2.53,44.29a1,1,0,0,1,0-1.43l7.81-7.81,2.84,2.85ZM23.11,28l-2.84-2.84,8.52-8.52,2.84,2.84Z" fill="#498cb5" class="color000000 svgShape"></path>
</svg>
