<svg xmlns="http://www.w3.org/2000/svg" viewBox="0 0 32 32" id="injection">
  <path d="M30.33789,21.10661a4.45217,4.45217,0,0,0-3.72656-.91309c-.19122.04248-.37866.07471-.5683.11151a10.31814,10.31814,0,0,0-.28912-1.06952,2.19582,2.19582,0,0,1,.00488-1.38281l1.41309-4.18018a4.51718,4.51718,0,0,0-5.55566-5.78027l-2.06348.60791a2.17984,2.17984,0,0,1-1.23047,0l-2.0625-.60791a4.51687,4.51687,0,0,0-5.55566,5.78027l1.41309,4.18018a2.20938,2.20938,0,0,1-.01367,1.43652,10.22748,10.22748,0,0,0-.41132,1.805c-.7533-.06226-1.43512-.131-2.08954-.21088l-.78619-2.33417,1.42181-.4787a.49767.49767,0,0,0,.31445-.63281L6.8822,6.5388l.47424-.15973a.49967.49967,0,1,0-.31836-.94727l-.94824.31934-.52362.17633L3.97,1.18809l.52313-.17621A.49967.49967,0,1,0,4.1748.06462L1.382,1.00554H1.38184l-.00012.00006-.99695.33588a.49984.49984,0,0,0,.15918.97363.49012.49012,0,0,0,.15918-.02637l.52374-.17645L2.82294,6.85136l-1.47137.49548a.49984.49984,0,0,0,.15918.97363.49012.49012,0,0,0,.15918-.02637l.47485-.15991.79736,2.3681.00024.00177.00067.00092.95612,2.83948.00024.00189.00073.001,1.91431,5.68506a.49842.49842,0,0,0,.63281.31445L7.86938,18.868l.62671,1.86072c-1.07666-.15381-2.11237-.32574-3.11523-.53619a4.44239,4.44239,0,0,0-3.71875.91406A4.49032,4.49032,0,0,0,0,24.60173v6.86035a.49971.49971,0,0,0,.5.5h31a.49971.49971,0,0,0,.5-.5V24.60173A4.49032,4.49032,0,0,0,30.33789,21.10661ZM11.65137,13.35222A3.52434,3.52434,0,0,1,14.957,8.70231a3.60607,3.60607,0,0,1,1.01953.14893l2.0625.60791c.085.025.17188.03845.25806.05621a3.42307,3.42307,0,0,0-.65845,1.373.50032.50032,0,0,0,.38086.59619.50945.50945,0,0,0,.10742.01172.50068.50068,0,0,0,.48828-.39209,2.44838,2.44838,0,0,1,1.37231-1.6897l1.91187-.56323a3.51767,3.51767,0,0,1,4.3252,4.501l-1.41309,4.18018A3.197,3.197,0,0,0,24.80469,19.55a9.49564,9.49564,0,0,1-.61426,7.3877l-.41895.793a.33779.33779,0,0,1-.34473.20117.3703.3703,0,0,1-.334-.21973L20.86133,22.842a2.11561,2.11561,0,0,0-3.84668,0l-2.2334,4.87012a.36707.36707,0,0,1-.332.21973.34113.34113,0,0,1-.3457-.20117l-.44629-.84668a9.38876,9.38876,0,0,1-.58984-7.3252,3.157,3.157,0,0,0-.00293-2.02637ZM2.17419,1.79313l.84851-.28589L4.6189,6.2465l-.42407.14282-.4245.14294ZM6.60254,18.23942l-.638-1.8949.47394-.15979a.5.5,0,0,0-.32031-.94727l-.47272.15936-.63818-1.89526.47321-.15912a.50013.50013,0,0,0-.31836-.94824l-.474.15936-.63818-1.89526.47351-.15961a.5.5,0,0,0-.32031-.94727l-.47229.15924L3.09277,7.81559l2.8418-.95752L9.44531,17.28239ZM31,30.96208H1V24.60173A3.49516,3.49516,0,0,1,2.29395,21.882a3.44486,3.44486,0,0,1,2.88379-.71094c1.17786.248,2.3902.44885,3.67657.621L9.7832,24.55a.49967.49967,0,0,0,.94727-.31836L9.956,21.93223c.519.058,1.06293.11,1.64679.15869a10.34383,10.34383,0,0,0,1.16968,5.25983l.44629.84668a1.37091,1.37091,0,0,0,1.21875.73535l.041-.001a1.36686,1.36686,0,0,0,1.21191-.80371L17.92285,23.258a1.11741,1.11741,0,0,1,2.03027,0l2.23145,4.87012a1.36884,1.36884,0,0,0,1.21484.80371,1.44758,1.44758,0,0,0,1.25684-.73437l.41895-.793a10.50632,10.50632,0,0,0,1.134-6.113c.20459-.03943.40887-.07477.61115-.12036a3.4376,3.4376,0,0,1,2.88574.71094A3.49516,3.49516,0,0,1,31,24.60173Z" fill="#498cb5" class="color000000 svgShape"></path>
</svg>
