<svg xmlns="http://www.w3.org/2000/svg" enable-background="new 0 0 512 512" viewBox="0 0 512 512" id="Teeth">
  <path d="M126.1,162.4c-4.5,0-8.1-3.6-8.1-8.1c0-4.1,3-7.5,7.1-8c19-2.3,30.5-13.1,42.6-24.6c10.4-9.9,21.2-20.1,37.1-25.7
	c4.2-1.5,8.8,0.7,10.3,4.9c1.5,4.2-0.7,8.8-4.9,10.3c-12.7,4.5-21.8,13.1-31.4,22.2c-12.8,12.2-27.4,26-51.7,28.9
	C126.8,162.4,126.5,162.4,126.1,162.4z" fill="#498cb5" class="color000000 svgShape"></path>
  <path d="M92.6,448.3c-5.8,0-11.3-2.1-15.7-5.8c-32.3-27.5-35.2-83-37-119.7c-0.6-11.7-1.3-26.3-3.1-29.4l-0.3-0.5
	c-11.5-16.8-42.1-61.4-26.4-129.5c9.2-40.3,33.4-64.8,69.9-70.9c0.6-0.1,53.3-7.8,99.9,26.4c3.7,2.4,4.8,7.5,2.3,11.2
	c-2.4,3.7-7.5,4.8-11.2,2.3c-0.2-0.2-0.5-0.3-0.7-0.5c-40.6-29.8-87.3-23.5-87.8-23.5c-30.2,5-48.8,24.2-56.7,58.6
	c-14.1,61.2,12.6,100.1,23.9,116.7l0.4,0.5c4.1,6,4.8,16.5,5.9,37.6c1.7,34,4.3,85.2,31.4,108.2c2.5,2.1,6,2.6,8.9,1.1
	c3.2-1.4,5.3-4.5,5.3-7.9c0.6-18.4,2.8-45.5,10.1-70.2c8.9-30.1,23.2-50.1,42.5-59.3c2.2-1.1,4.8-1.1,7,0
	c19.3,9.3,33.6,29.2,42.5,59.3c7.3,24.7,9.6,51.8,10.1,70.2c0,3.5,2.1,6.6,5.4,8c2.9,1.4,6.4,1,8.9-1.2
	c26.9-23,29.6-74.3,31.3-108.2c1.1-21.2,1.8-31.7,6-37.7c2.5-3.7,7.6-4.6,11.2-2.1c3.7,2.5,4.6,7.6,2.1,11.2
	c-1.8,3-2.5,17.6-3.1,29.4c-1.9,36.7-4.7,92.2-37,119.7c-7.2,6.2-17.4,7.6-26,3.6c-8.9-3.9-14.7-12.6-14.9-22.2
	c-0.9-27.9-6.6-93.4-40-113.6c-33.4,20.1-39.1,85.6-40,113.6C117.3,437.5,106.2,448.3,92.6,448.3L92.6,448.3z" fill="#498cb5" class="color000000 svgShape"></path>
  <path d="M314.7,274.6c-58.2,0-105.4-47.2-105.4-105.4S256.5,63.7,314.7,63.7s105.4,47.2,105.4,105.4
	C420.1,227.3,372.9,274.5,314.7,274.6z M314.7,79.9c-49.3,0-89.3,40-89.3,89.3s40,89.3,89.3,89.3s89.3-40,89.3-89.3
	C403.9,119.8,364,79.9,314.7,79.9z" fill="#498cb5" class="color000000 svgShape"></path>
  <path d="M412.3,274.7c-2.1,0-4.2-0.8-5.7-2.4l-28.4-28.7c-3.3-3-3.3-8-0.3-11.2c3-3.3,8.2-3.4,11.4-0.4c0.1,0.1,0.1,0.1,0.3,0.2
	L418,261c3.2,3.1,3.2,8.3,0,11.4C416.5,273.9,414.4,274.8,412.3,274.7L412.3,274.7z" fill="#498cb5" class="color000000 svgShape"></path>
  <path d="M463.9,360.8c-2.1,0-4.2-0.9-5.7-2.4l-68.8-68.8c-3.2-3.2-3.2-8.3,0-11.4l34.4-34.4c3.1-3.2,8.2-3.2,11.4,0c0,0,0,0,0,0
	l68.8,68.8c3.2,3.2,3.2,8.3,0,11.4l-34.4,34.4C468.1,359.9,466,360.8,463.9,360.8z M406.5,283.9l57.4,57.4l23-23l-57.4-57.4
	L406.5,283.9z" fill="#498cb5" class="color000000 svgShape"></path>
</svg>
