<svg xmlns="http://www.w3.org/2000/svg" viewBox="0 0 32 32" id="teethsuction">
  <path d="M22.35352,13.18945l-1.41406,1.41406a.49995.49995,0,1,0,.707.707l1.41406-1.41406a.49995.49995,0,0,0-.707-.707Zm4.58594.707,1.41406,1.41406a.49995.49995,0,0,0,.707-.707l-1.41406-1.41406a.49995.49995,0,0,0-.707.707ZM2.5,8H13.0921A1.49758,1.49758,0,0,0,14.5,9h1A1.50164,1.50164,0,0,0,17,7.5V7h5.5a.50065.50065,0,0,1,.5.5V10a2,2,0,0,0,4,0V6.5A3.50425,3.50425,0,0,0,23.5,3H17V2.5A1.50164,1.50164,0,0,0,15.5,1h-1a1.49758,1.49758,0,0,0-1.4079,1H2.5A2.50263,2.50263,0,0,0,0,4.5v1A2.50263,2.50263,0,0,0,2.5,8ZM26,10a1,1,0,0,1-2,0V9h2ZM17,4h6.5A2.50263,2.50263,0,0,1,26,6.5V8H24V7.5A1.50164,1.50164,0,0,0,22.5,6H17ZM14,2.5a.50065.50065,0,0,1,.5-.5h1a.50065.50065,0,0,1,.5.5v5a.50065.50065,0,0,1-.5.5h-1a.50065.50065,0,0,1-.5-.5ZM1,4.5A1.50164,1.50164,0,0,1,2.5,3H13V7H2.5A1.50164,1.50164,0,0,1,1,5.5Zm23.5,9v2a.5.5,0,0,0,1,0v-2a.5.5,0,0,0-1,0Zm2,11.5a.5.5,0,1,0,.5.5A.5.5,0,0,0,26.5,25Zm3,0a.5.5,0,1,0,.5.5A.5.5,0,0,0,29.5,25Zm-1-2a.5.5,0,1,0,.5.5A.5.5,0,0,0,28.5,23Zm-14,4a.5.5,0,1,0,.5.5A.5.5,0,0,0,14.5,27Zm13.14856-6.985a2.19049,2.19049,0,0,0-1.9928-2.40662l-.92139-.08887a.65355.65355,0,0,1-.34229-.13672l-.72705-.57617a2.2305,2.2305,0,0,0-3.60986,1.624L19.96631,20H17.55713l.25879-.76562a2.22951,2.22951,0,0,0-2.74268-2.85352l-.8877.26172a.65558.65558,0,0,1-.37061,0l-.8877-.26172a2.23022,2.23022,0,0,0-2.74316,2.85352L10.44275,20H8.46008l.35583-1.05273a2.23009,2.23009,0,0,0-2.74268-2.85352l-.8877.26172a.64708.64708,0,0,1-.37061,0l-.8877-.26172a2.23022,2.23022,0,0,0-2.74316,2.85352l.6084,1.7998a.6398.6398,0,0,1,.02472.15436A4.45979,4.45979,0,0,0,0,24.5v4A2.50263,2.50263,0,0,0,2.5,31h27A2.50263,2.50263,0,0,0,32,28.5v-4A4.49706,4.49706,0,0,0,27.64856,20.015ZM20.5542,21.3623a1.6347,1.6347,0,0,0,.31635-.63739A.48873.48873,0,0,0,20.93018,20.5c0-.00842-.00433-.01538-.00476-.02368.0036-.0318.01862-.06036.02039-.09253l.10742-1.89648a1.23085,1.23085,0,0,1,1.99121-.89648l.728.57617a1.65732,1.65732,0,0,0,.86572.34863l.92188.08887a1.23032,1.23032,0,0,1,.81592,2.02539l-1.2373,1.44238a1.667,1.667,0,0,0-.395.97266,3.80612,3.80612,0,0,1-1.333,2.65332l-.10645.08984L23.207,23.73047a1.1842,1.1842,0,0,0-.74854-1.05371,1.19776,1.19776,0,0,0-.45068-.08789,1.18539,1.18539,0,0,0-.81787.3291l-1.49561,1.418-.01709-.166A3.75636,3.75636,0,0,1,20.5542,21.3623ZM11.40967,17.667a1.2156,1.2156,0,0,1,1.23486-.32715l.88867.26172a1.65226,1.65226,0,0,0,.93408,0l.88867-.26172a1.22982,1.22982,0,0,1,1.5127,1.57422l-.6084,1.79883a1.66359,1.66359,0,0,0-.00342,1.05078,3.80607,3.80607,0,0,1-.24609,2.96l-.06494.12207-.8584-1.87207a1.19655,1.19655,0,0,0-2.1748,0l-.8584,1.87207-.07715-.14551a3.75537,3.75537,0,0,1-.23486-2.93262,1.64572,1.64572,0,0,0-.00244-1.05371l-.6084-1.7998A1.21152,1.21152,0,0,1,11.40967,17.667Zm-9-.28711a1.21479,1.21479,0,0,1,1.23486-.32715l.88867.26172a1.65226,1.65226,0,0,0,.93408,0l.88867-.26172A1.22982,1.22982,0,0,1,7.86865,18.627L7.303,20.29938l-.007.02051-.03583.1059a1.66359,1.66359,0,0,0-.00342,1.05078,3.80406,3.80406,0,0,1-.24658,2.96l-.06445.123-.8584-1.873a1.19655,1.19655,0,0,0-2.1748,0l-.8584,1.873-.07715-.14648a3.75747,3.75747,0,0,1-.23486-2.93262c.01215-.03662.00854-.07471.01807-.11169a.49433.49433,0,0,0,.05017-.30981,1.63339,1.63339,0,0,0-.07068-.6322l-.6084-1.7998A1.21152,1.21152,0,0,1,2.40967,17.37988ZM31,28.5A1.50164,1.50164,0,0,1,29.5,30H2.5A1.50164,1.50164,0,0,1,1,28.5v-4a3.46287,3.46287,0,0,1,.57166-1.87921,4.71907,4.71907,0,0,0,.52112,2.25909l.19287.36523a.87234.87234,0,0,0,.77539.46777h.02588a.87264.87264,0,0,0,.77344-.5127l.96143-2.09766c.09082-.19727.26563-.19727.35645,0l.96143,2.09766a.87264.87264,0,0,0,.77344.5127.88353.88353,0,0,0,.80176-.46777l.17969-.3418a4.80908,4.80908,0,0,0,.31152-3.74121A.6485.6485,0,0,1,8.1803,21h2.60028l.0119.03516a.66351.66351,0,0,1-.00635.4375,4.74867,4.74867,0,0,0,.30713,3.69434l.19189.36328a.87733.87733,0,0,0,1.5752-.043l.96143-2.09766c.09082-.19727.26563-.19727.35645,0l.96143,2.09766A.87279.87279,0,0,0,15.91357,26h.0249a.871.871,0,0,0,.77588-.46875l.18018-.34082a4.80908,4.80908,0,0,0,.31152-3.74121.656.656,0,0,1,.00146-.415L17.21906,21h2.37445a4.741,4.741,0,0,0-.91138,3.27344l.04248.41016a.87888.87888,0,0,0,1.478.54785l1.67529-1.58691a.18384.18384,0,0,1,.20752-.04.18775.18775,0,0,1,.12256.17285l.10889,2.30469a.877.877,0,0,0,1.44434.62891l.29492-.249a4.81129,4.81129,0,0,0,1.68555-3.35449.65978.65978,0,0,1,.15625-.38477l1.23682-1.44238A2.19194,2.19194,0,0,0,27.31543,21H27.5A3.50425,3.50425,0,0,1,31,24.5Zm-8.63818-.48047a2.88021,2.88021,0,0,1-1.7793.00879,2.84826,2.84826,0,0,1-.85791-.51367,2.42458,2.42458,0,0,0-1.19531-.59277,3.07352,3.07352,0,0,0-2.45508,1.04688.49984.49984,0,1,0,.68457.72852,2.147,2.147,0,0,1,1.62988-.78516,1.46828,1.46828,0,0,1,.71973.39063,3.84435,3.84435,0,0,0,1.14209.66895,3.44826,3.44826,0,0,0,1.15527.19336,4.44275,4.44275,0,0,0,1.23242-.18457.49994.49994,0,1,0-.27637-.96094ZM27.5,27a.5.5,0,1,0,.5.5A.5.5,0,0,0,27.5,27Zm-2,1a.5.5,0,1,0,.5.5A.5.5,0,0,0,25.5,28Z" fill="#498cb5" class="color000000 svgShape"></path>
</svg>
