<svg xmlns="http://www.w3.org/2000/svg" viewBox="0 0 64 64" id="ToothBacteria">
  <rect width="24" height="24" x="29" y="37" fill="#0094ee" opacity=".5" rx="4" ry="4" class="color00aeee svgShape"></rect>
  <path fill="#498cb5" d="M32.34 57a5.19 5.19 0 0 1-5.05-4l-1.81-7.41a1.52 1.52 0 0 0-3 0L20.71 53a5.2 5.2 0 0 1-10.14-.19C10 50 9.13 45.87 8.45 42.54a16.62 16.62 0 0 0-3.35-7.31 13.58 13.58 0 0 1-3-9.86 13.73 13.73 0 0 1 12.28-12.32 13.33 13.33 0 0 1 5.63.69 12.07 12.07 0 0 0 8 0 13.13 13.13 0 0 1 1.92-.49 1 1 0 0 1 1 .38 1 1 0 0 1 .1 1A9.93 9.93 0 0 0 30 19a8.25 8.25 0 0 0 0 .86A10 10 0 0 0 40 29a9.93 9.93 0 0 0 4.34-1 1 1 0 0 1 1 .1 1 1 0 0 1 .37 1 13.46 13.46 0 0 1-2.86 6.14 16.62 16.62 0 0 0-3.35 7.31c-.63 3.32-1.5 7.45-2.07 10.3A5.18 5.18 0 0 1 32.34 57ZM24 42.47a3.47 3.47 0 0 1 3.42 2.68l1.81 7.41a3.2 3.2 0 0 0 6.24-.11c.59-2.84 1.44-7 2.12-10.31A18.66 18.66 0 0 1 41.36 34a11.7 11.7 0 0 0 2-3.41A12.3 12.3 0 0 1 40 31a12.08 12.08 0 0 1-12-11v-1a12.3 12.3 0 0 1 .46-3.31 14.21 14.21 0 0 1-9.11-.06 11.34 11.34 0 0 0-4.79-.58 11.69 11.69 0 0 0-10.51 10.5A11.5 11.5 0 0 0 6.64 34a18.66 18.66 0 0 1 3.77 8.19c.68 3.33 1.53 7.47 2.12 10.31a3.2 3.2 0 0 0 5.11 1.87 3.15 3.15 0 0 0 1.13-1.76l1.81-7.41A3.47 3.47 0 0 1 24 42.47Z" class="color1a4d7e svgShape"></path>
  <path fill="#498cb5" d="M24 21.72a20.58 20.58 0 0 1-9.76-2.67 1 1 0 0 1 1-1.7A19 19 0 0 0 24 19.72a16.13 16.13 0 0 0 4.75-.72 1 1 0 1 1 .58 1.92 18.35 18.35 0 0 1-5.33.8Z" class="color1a4d7e svgShape"></path>
  <path fill="#498cb5" d="M40 31a12.08 12.08 0 0 1-12-11v-1a12 12 0 1 1 12 12zm0-22a10 10 0 0 0-10 10 8.25 8.25 0 0 0 0 .86A10 10 0 0 0 40 29a10 10 0 0 0 0-20zm18.23 31.73a3.47 3.47 0 0 1-2.47-1l-6.47-6.47a3.51 3.51 0 0 1 0-5 3.59 3.59 0 0 1 5 0l6.47 6.47a3.5 3.5 0 0 1-2.48 6zm-6.46-11.46a1.5 1.5 0 0 0-1.5 1.5 1.47 1.47 0 0 0 .44 1.06l6.46 6.46a1.53 1.53 0 0 0 2.12 0 1.46 1.46 0 0 0 .44-1.06 1.47 1.47 0 0 0-.44-1.06l-6.46-6.46a1.47 1.47 0 0 0-1.06-.44z" class="color1a4d7e svgShape"></path>
  <path fill="#498cb5" d="M50 30a1 1 0 0 1-.71-.29l-2.22-2.22a1 1 0 0 1 1.42-1.42l2.22 2.22a1 1 0 0 1 0 1.42A1 1 0 0 1 50 30zm-10-2.88a2.5 2.5 0 0 1-1.42-.47c-.29-.17-.33-.19-.49-.16a1 1 0 0 1-.36-2 2.47 2.47 0 0 1 1.89.43c.29.17.33.19.49.16s.2-.07.4-.32a2.44 2.44 0 0 1 1.62-1.07 2.49 2.49 0 0 1 1.89.43c.27.17.32.19.49.16a1 1 0 1 1 .35 2 2.46 2.46 0 0 1-1.86-.43c-.27-.17-.32-.19-.48-.16s-.2.07-.4.32a2.49 2.49 0 0 1-1.62 1.07 2.71 2.71 0 0 1-.5.04zm-2-7.25a1 1 0 0 1-.82-1.57 2.43 2.43 0 0 1 1.63-1c.32-.08.37-.1.46-.24s.1-.18.06-.51a2.46 2.46 0 0 1 .39-1.89 2.48 2.48 0 0 1 1.64-1c.31-.08.36-.09.45-.23a1 1 0 0 1 1.65 1.14 2.52 2.52 0 0 1-1.64 1c-.31.07-.36.09-.46.23s-.09.17-.05.51a2.46 2.46 0 0 1-.39 1.89 2.48 2.48 0 0 1-1.64 1c-.32.08-.36.09-.46.23a1 1 0 0 1-.82.44z" class="color1a4d7e svgShape"></path>
  <circle cx="33" cy="20" r="1" fill="#498cb5" class="color1a4d7e svgShape"></circle>
  <circle cx="44" cy="20" r="1" fill="#498cb5" class="color1a4d7e svgShape"></circle>
  <circle cx="38" cy="12" r="1" fill="#498cb5" class="color1a4d7e svgShape"></circle>
</svg>
