<svg xmlns="http://www.w3.org/2000/svg" width="24" height="24" fill="none" viewBox="0 0 24 24" id="toothimplant">
  <path fill="#498cb5" fill-rule="evenodd" d="M8 2.5C4.96243 2.5 2.5 4.96243 2.5 8C2.5 8.64507 2.65271 9.24673 2.86695 9.87504C2.94127 10.093 3.02792 10.3262 3.11766 10.5677C3.22996 10.8699 3.3471 11.1852 3.45101 11.5H20.549C20.6529 11.1852 20.77 10.8699 20.8823 10.5677C20.9721 10.3262 21.0587 10.093 21.1331 9.87504C21.3473 9.24673 21.5 8.64507 21.5 8C21.5 4.96243 19.0376 2.5 16 2.5C15.752 2.5 15.5081 2.51638 15.2692 2.54807C13.2051 2.82187 10.7949 2.82187 8.73082 2.54807C8.49194 2.51638 8.24801 2.5 8 2.5ZM1.5 8C1.5 4.41015 4.41015 1.5 8 1.5C8.29211 1.5 8.57997 1.5193 8.86232 1.55675C10.8391 1.81898 13.1609 1.81898 15.1377 1.55675C15.42 1.5193 15.7079 1.5 16 1.5C19.5899 1.5 22.5 4.41015 22.5 8C22.5 8.80484 22.3083 9.52675 22.0795 10.1978C21.9854 10.474 21.8901 10.729 21.7974 10.9775C21.6536 11.3627 21.5156 11.7321 21.3967 12.14C21.3344 12.3533 21.1389 12.5 20.9167 12.5H3.08333C2.86111 12.5 2.66556 12.3533 2.60333 12.14C2.48435 11.7321 2.34644 11.3627 2.20263 10.9775C2.10986 10.729 2.01463 10.474 1.92045 10.1978C1.69166 9.52675 1.5 8.80484 1.5 8Z" clip-rule="evenodd" class="color000000 svgShape"></path>
  <path fill="#498cb5" fill-rule="evenodd" d="M15.5 5C15.5 4.72386 15.7239 4.5 16 4.5 17.933 4.5 19.5 6.067 19.5 8 19.5 8.27614 19.2761 8.5 19 8.5 18.7239 8.5 18.5 8.27614 18.5 8 18.5 6.61929 17.3807 5.5 16 5.5 15.7239 5.5 15.5 5.27614 15.5 5zM7.61333 11.683C7.7083 11.5672 7.85021 11.5 8 11.5H16C16.1498 11.5 16.2917 11.5672 16.3867 11.683 16.4816 11.7988 16.5197 11.9512 16.4903 12.0981L14.8118 20.4903C14.5781 21.6588 13.5521 22.5 12.3604 22.5H11.6396C10.4479 22.5 9.42187 21.6589 9.18816 20.4903L7.50971 12.0981C7.48034 11.9512 7.51836 11.7988 7.61333 11.683zM8.60991 12.5L10.1687 20.2942C10.309 20.9953 10.9246 21.5 11.6396 21.5H12.3604C13.0754 21.5 13.691 20.9953 13.8313 20.2942L15.3901 12.5H8.60991z" clip-rule="evenodd" class="color000000 svgShape"></path>
  <path fill="#498cb5" fill-rule="evenodd" d="M6.5 15C6.5 14.7239 6.72386 14.5 7 14.5H17C17.2761 14.5 17.5 14.7239 17.5 15 17.5 15.2761 17.2761 15.5 17 15.5H7C6.72386 15.5 6.5 15.2761 6.5 15zM7.5 18C7.5 17.7239 7.72386 17.5 8 17.5H16C16.2761 17.5 16.5 17.7239 16.5 18 16.5 18.2761 16.2761 18.5 16 18.5H8C7.72386 18.5 7.5 18.2761 7.5 18z" clip-rule="evenodd" class="color000000 svgShape"></path>
</svg>
